#!OML:ASF F:\VICON\USERDATA\INSTALL\rory3\rory3.ASF
:FULLY-SPECIFIED
:DEGREES
210
root 4.54602 17.6696 1.39016 -1.76238 -18.76 0.347618
lowerback 29.7674 -0.557022 1.20267
upperback 4.67009 0.558512 8.44087
thorax -10.6966 0.259438 8.23344
lowerneck -9.13045 -4.59379 -5.05899
upperneck 27.3101 -3.97508 -6.47511
head 10.2132 -3.10286 -1.8877
rclavicle -4.6118e-014 4.77083e-015
rhumerus -28.5553 -43.5976 -52.6649
rradius 38.171
rwrist -18.4909
rhand -20.7658 -1.78448
rfingers 7.12502
rthumb 5.60043 -31.6905
lclavicle -4.6118e-014 4.77083e-015
lhumerus -49.4557 10.4874 82.2598
lradius 56.4529
lwrist 10.5866
lhand -12.1943 46.5636
lfingers 7.12502
lthumb 13.8698 76.0811
rfemur -17.1726 9.36053 20.8236
rtibia 44.8714
rfoot -18.903 -12.1531
rtoes 3.03938
lfemur -27.5367 1.45912 -13.3941
ltibia 48.3008
lfoot -12.1587 8.51677
ltoes -18.5606
211
root 4.54536 17.6922 1.23232 -1.86803 -18.829 0.696521
lowerback 29.4034 -0.691067 0.75226
upperback 5.07629 0.178436 8.3771
thorax -10.0401 0.0731246 8.52743
lowerneck -9.9135 -4.29822 -4.60235
upperneck 27.0341 -3.54256 -6.67973
head 10.2494 -2.88441 -2.00115
rclavicle -1.74931e-014 3.33958e-014
rhumerus -28.811 -43.8154 -53.2798
rradius 40.2858
rwrist -20.095
rhand -21.438 -2.20744
rfingers 7.12502
rthumb 4.9514 -32.1296
lclavicle -1.74931e-014 3.33958e-014
lhumerus -49.0806 11.0998 81.9159
lradius 56.6359
lwrist 11.6757
lhand -12.1294 47.3501
lfingers 7.12502
lthumb 13.9323 76.8633
rfemur -17.7461 9.32382 20.5131
rtibia 44.8506
rfoot -18.4092 -11.8514
rtoes 2.82277
lfemur -26.9192 2.53355 -14.3547
ltibia 49.8164
lfoot -12.2453 8.63335
ltoes -18.3419
212
root 4.54987 17.7146 1.07485 -1.95374 -18.9697 0.937514
lowerback 29.3081 -0.655072 0.712427
upperback 5.05682 0.209337 8.37503
thorax -10.0252 0.0896601 8.53506
lowerneck -9.2304 -4.26331 -4.8378
upperneck 26.6254 -3.52549 -6.65033
head 9.97633 -2.87804 -1.9145
rclavicle 2.06736e-014 -3.97569e-014
rhumerus -30.5771 -44.0398 -52.3116
rradius 42.5097
rwrist -22.2602
rhand -22.2032 -2.43954
rfingers 7.12502
rthumb 4.21252 -32.3776
lclavicle 2.06736e-014 -3.97569e-014
lhumerus -49.2369 10.877 81.9987
lradius 56.7041
lwrist 12.3132
lhand -12.0203 47.8211
lfingers 7.12502
lthumb 14.0374 77.3271
rfemur -18.2507 9.35935 20.2989
rtibia 44.7089
rfoot -17.9243 -11.4705
rtoes 3.37211
lfemur -26.1651 3.55374 -15.1716
ltibia 51.1946
lfoot -12.3409 8.83236
ltoes -18.4602
213
root 4.55101 17.737 0.915383 -2.02509 -19.0066 1.30174
lowerback 29.1955 -0.624972 0.474899
upperback 4.98341 0.177533 8.3698
thorax -10.0572 0.0861525 8.67477
lowerneck -9.05526 -4.23881 -5.0273
upperneck 26.5691 -3.49318 -6.56769
head 9.93071 -2.8695 -1.84356
rclavicle -1.11319e-014 2.38542e-014
rhumerus -32.2397 -44.3898 -51.3905
rradius 44.7173
rwrist -24.549
rhand -23.7753 -2.94446
rfingers 7.12502
rthumb 2.69436 -32.9072
lclavicle -1.11319e-014 2.38542e-014
lhumerus -49.4535 10.6485 82.0271
lradius 56.6143
lwrist 12.6523
lhand -11.9083 47.4908
lfingers 7.12502
lthumb 14.1454 76.9893
rfemur -18.7974 9.28808 19.9599
rtibia 44.5406
rfoot -17.3775 -11.2162
rtoes 3.96895
lfemur -25.3679 4.46255 -16.0997
ltibia 52.4149
lfoot -12.3759 9.02349
ltoes -18.7305
214
root 4.55209 17.7645 0.771729 -2.0691 -19.0159 1.31288
lowerback 28.9015 -0.696721 0.700326
upperback 5.0021 0.136742 8.36564
thorax -9.89708 0.0571803 8.55015
lowerneck -8.88616 -4.25007 -5.07683
upperneck 26.5733 -3.50898 -6.59101
head 9.90082 -2.88259 -1.84044
rclavicle 6.59965e-014 1.59028e-014
rhumerus -34.1947 -45.0614 -50.2534
rradius 47.0272
rwrist -26.41
rhand -25.1513 -3.38322
rfingers 7.12502
rthumb 1.36547 -33.3586
lclavicle 6.59965e-014 1.59028e-014
lhumerus -49.7628 10.3892 81.9719
lradius 56.7328
lwrist 12.7787
lhand -11.8767 46.8984
lfingers 7.12502
lthumb 14.1758 76.3948
rfemur -19.1297 9.1831 20.005
rtibia 44.3337
rfoot -16.9023 -11.0432
rtoes 4.61842
lfemur -24.3516 5.32872 -16.5987
ltibia 53.5438
lfoot -12.5448 9.04212
ltoes -19.7607
215
root 4.55761 17.7863 0.613349 -2.19689 -19.1286 1.41836
lowerback 28.8157 -1.2796 -0.087354
upperback 5.10973 -0.837496 8.70495
thorax -9.61188 -0.389654 9.70709
lowerneck -8.80779 -3.41227 -5.95358
upperneck 26.3744 -2.15797 -6.73269
head 9.85674 -2.36364 -1.59073
rclavicle 5.56597e-015 -1.11319e-014
rhumerus -33.8327 -43.6525 -50.9582
rradius 49.1576
rwrist -28.151
rhand -25.2994 -3.51266
rfingers 7.12502
rthumb 1.22244 -33.4889
lclavicle 5.56597e-015 -1.11319e-014
lhumerus -50.7028 12.7843 81.3579
lradius 56.9988
lwrist 12.5103
lhand -11.6601 46.8683
lfingers 7.12502
lthumb 14.3845 76.3499
rfemur -19.519 9.23278 19.9726
rtibia 44.0778
rfoot -16.2793 -10.7785
rtoes 5.94666
lfemur -23.2733 6.18659 -17.1223
ltibia 54.4886
lfoot -12.5516 8.97804
ltoes -20.512
216
root 4.5631 17.7903 0.460218 -2.33386 -19.3516 1.47182
lowerback 28.7824 -1.33975 -0.175975
upperback 5.08382 -0.935707 8.77837
thorax -9.61177 -0.433029 9.87418
lowerneck -8.53967 -3.18627 -6.22459
upperneck 26.2969 -1.8263 -6.72283
head 9.78772 -2.23176 -1.49818
rclavicle 1.43125e-014 1.90833e-014
rhumerus -35.6961 -43.7015 -49.7103
rradius 51.6034
rwrist -30.1141
rhand -25.0811 -3.82581
rfingers 7.12502
rthumb 1.43322 -33.8007
lclavicle 1.43125e-014 1.90833e-014
lhumerus -51.2199 13.0166 81.172
lradius 57.0096
lwrist 12.0373
lhand -11.218 47.075
lfingers 7.12502
lthumb 14.8105 76.5258
rfemur -19.8788 9.2594 19.9991
rtibia 43.7632
rfoot -15.6466 -10.5032
rtoes 7.32717
lfemur -22.0725 7.15904 -17.5193
ltibia 55.2921
lfoot -12.4649 8.58788
ltoes -20.3142
217
root 4.56653 17.8276 0.315113 -2.44435 -19.5023 1.67537
lowerback 28.5251 -0.682395 0.65571
upperback 5.61995 0.0533273 7.82465
thorax -9.45824 0.0515687 8.57408
lowerneck -9.95204 -3.93313 -4.30535
upperneck 26.7162 -3.09731 -6.68373
head 10.1367 -2.64442 -1.99071
rclavicle 5.96354e-014 -8.90555e-014
rhumerus -39.8301 -47.2182 -46.9452
rradius 54.2619
rwrist -31.93
rhand -24.8986 -3.95698
rfingers 7.12502
rthumb 1.60949 -33.9307
lclavicle 5.96354e-014 -8.90555e-014
lhumerus -49.6441 9.93784 81.3028
lradius 56.4839
lwrist 11.2238
lhand -10.648 47.088
lfingers 7.12502
lthumb 15.3595 76.4976
rfemur -20.1148 9.10386 19.8517
rtibia 43.3327
rfoot -15.054 -10.1356
rtoes 7.73961
lfemur -20.7362 7.90203 -18.0634
ltibia 55.7885
lfoot -12.4761 8.05109
ltoes -20.0439
218
root 4.56995 17.8612 0.171367 -2.43619 -19.4058 1.92727
lowerback 28.1222 -0.79466 0.409685
upperback 5.5769 -0.174497 7.86136
thorax -9.27087 -0.0521309 8.82584
lowerneck -9.20489 -3.77134 -4.62967
upperneck 26.0125 -2.94613 -6.47346
head 9.75237 -2.5562 -1.80216
rclavicle -3.4191e-014 2.06736e-014
rhumerus -41.6478 -47.3527 -45.6331
rradius 56.727
rwrist -33.6111
rhand -24.3599 -4.04051
rfingers 7.12502
rthumb 2.12981 -34.0096
lclavicle -3.4191e-014 2.06736e-014
lhumerus -49.9417 10.032 81.2076
lradius 56.2953
lwrist 10.3657
lhand -10.2071 47.1203
lfingers 7.12502
lthumb 15.7842 76.4967
rfemur -20.4732 8.80866 19.6096
rtibia 42.924
rfoot -14.4712 -9.83272
rtoes 7.73763
lfemur -19.5452 8.18784 -18.6991
ltibia 56.1217
lfoot -12.4574 7.59642
ltoes -20.6665
219
root 4.565 17.8858 0.0158681 -2.32151 -19.4427 2.02799
lowerback 27.8162 -0.830833 0.228547
upperback 5.46289 -0.277038 7.86691
thorax -9.23064 -0.0931385 8.96559
lowerneck -9.73898 -3.69626 -4.37661
upperneck 26.4636 -2.75444 -6.78428
head 10.0104 -2.49865 -1.96156
rclavicle -5.08889e-014 6.36111e-015
rhumerus -43.6445 -47.0578 -44.4409
rradius 59.3473
rwrist -35.2133
rhand -24.0625 -4.05391
rfingers 7.12502
rthumb 2.41699 -34.02
lclavicle -5.08889e-014 6.36111e-015
lhumerus -50.2974 9.91085 80.9648
lradius 56.1229
lwrist 9.6792
lhand -10.0854 46.734
lfingers 7.12502
lthumb 15.9014 76.1012
rfemur -20.9803 8.87255 19.5819
rtibia 42.503
rfoot -13.8612 -9.69795
rtoes 8.50064
lfemur -18.4192 8.67074 -19.0739
ltibia 56.3028
lfoot -11.93 6.79143
ltoes -22.0447
220
root 4.56209 17.8972 -0.144739 -2.2664 -19.6192 2.26231
lowerback 27.5667 -0.788325 -0.110544
upperback 5.39516 -0.329922 7.81087
thorax -9.17149 -0.109166 9.10973
lowerneck -9.84863 -3.59267 -4.44908
upperneck 26.4819 -2.61606 -6.66293
head 10.0443 -2.43149 -1.89483
rclavicle 5.08889e-014 -6.67916e-014
rhumerus -45.4889 -46.6908 -43.4657
rradius 62.2263
rwrist -36.8159
rhand -24.0216 -4.15525
rfingers 7.12502
rthumb 2.45646 -34.1209
lclavicle 5.08889e-014 -6.67916e-014
lhumerus -50.6266 9.74677 80.702
lradius 55.919
lwrist 9.10592
lhand -10.0203 46.2786
lfingers 7.12502
lthumb 15.9641 75.6407
rfemur -21.5962 9.00853 19.3974
rtibia 42.2309
rfoot -13.2875 -9.45437
rtoes 9.64101
lfemur -17.2385 9.39836 -19.5413
ltibia 56.4064
lfoot -11.4914 5.71771
ltoes -22.2634
221
root 4.56557 17.9066 -0.292468 -2.43045 -19.6585 2.579
lowerback 27.3488 -0.757894 -0.330538
upperback 5.47206 -0.381163 7.67309
thorax -8.96465 -0.137841 9.07733
lowerneck -10.0698 -3.50206 -4.17432
upperneck 26.3329 -2.51493 -6.72879
head 10.0256 -2.36386 -1.95315
rclavicle -5.24792e-014 -3.18055e-014
rhumerus -47.3107 -46.6418 -42.458
rradius 65.1162
rwrist -38.3274
rhand -23.8167 -3.83715
rfingers 7.12502
rthumb 2.65436 -33.8004
lclavicle -5.24792e-014 -3.18055e-014
lhumerus -50.7286 9.52738 80.46
lradius 55.7544
lwrist 8.60697
lhand -9.83866 46.4613
lfingers 7.12502
lthumb 16.139 75.8093
rfemur -21.9407 8.90613 19.1184
rtibia 41.9944
rfoot -12.7632 -9.1868
rtoes 10.3418
lfemur -15.7534 9.81169 -20.1437
ltibia 56.3977
lfoot -11.2774 4.7639
ltoes -23.4976
222
root 4.56587 17.9087 -0.437377 -2.68779 -19.3066 2.87891
lowerback 27.1131 -0.892091 -0.466635
upperback 5.63209 -0.625086 7.54469
thorax -8.62451 -0.267174 9.06558
lowerneck -10.5318 -3.37242 -3.8026
upperneck 26.1359 -2.35335 -6.83588
head 10.0349 -2.26537 -2.0398
rclavicle -3.26007e-014 1.74931e-014
rhumerus -48.9983 -47.4215 -41.164
rradius 67.5172
rwrist -38.6463
rhand -22.9098 -3.63231
rfingers 7.12502
rthumb 3.5302 -33.5828
lclavicle -3.26007e-014 1.74931e-014
lhumerus -50.7577 9.40603 80.2191
lradius 55.7677
lwrist 8.39504
lhand -9.98944 45.972
lfingers 7.12502
lthumb 15.9938 75.3317
rfemur -22.1729 8.56082 18.8908
rtibia 41.845
rfoot -12.2267 -9.11253
rtoes 9.99229
lfemur -14.1807 9.79447 -20.6793
ltibia 56.1984
lfoot -10.8789 3.75652
ltoes -24.4744
223
root 4.56722 17.9177 -0.590252 -2.63872 -18.5729 2.86602
lowerback 26.7445 -1.15694 -0.0367264
upperback 5.77877 -0.889312 7.35133
thorax -8.24253 -0.419116 8.63563
lowerneck -11.3341 -3.40952 -3.33859
upperneck 26.1798 -2.48651 -6.66484
head 10.1922 -2.27075 -2.09388
rclavicle 6.99722e-014 -1.43125e-014
rhumerus -50.9752 -48.1134 -39.8898
rradius 69.9853
rwrist -39.1703
rhand -22.0482 -3.6417
rfingers 7.12502
rthumb 4.36219 -33.5768
lclavicle 6.99722e-014 -1.43125e-014
lhumerus -50.2691 8.65579 79.9843
lradius 55.5198
lwrist 8.46222
lhand -10.4091 45.4965
lfingers 7.12502
lthumb 15.5896 74.8882
rfemur -22.5128 7.98393 18.9554
rtibia 41.6186
rfoot -11.7882 -9.17431
rtoes 10.2585
lfemur -12.8534 9.4102 -20.8955
ltibia 55.9128
lfoot -10.4809 2.56451
ltoes -25.5177
